# xmcd
#
# Track frame offsets: 
#        150
#        18301
#        29548
#        44397
#        64345
#        75293
#        99142
#        113837
#        129738
#        144733
#        163483
#        178931
#        194233
#        217183
#
# Disc length: 3369 seconds
#
# Revision: 0
# Processed by: cddbd v1.5.2PL0 Copyright (c) Steve Scherf et al.
# Submitted via: ExactAudioCopy v1.3
#
DISCID=d40d270e
DTITLE=Dirty Deep - What's Flowin' In My Veins
DYEAR=2017
DGENRE=Blues Rock
TTITLE0=Holy Pocket Boogie
TTITLE1=Muddy Water
TTITLE2=Goin' Down South
TTITLE3=John The Revelator
TTITLE4=Leave Me Alone
TTITLE5=Light And Blue
TTITLE6=How I Ride
TTITLE7=Messin' Around
TTITLE8=Can I Kick It
TTITLE9=Mud Turns Blood
TTITLE10=Bottleneck
TTITLE11=You Don't Know
TTITLE12=Howlin' To The Moon
TTITLE13=Shine
EXTD=
EXTT0=
EXTT1=
EXTT2=
EXTT3=
EXTT4=
EXTT5=
EXTT6=
EXTT7=
EXTT8=
EXTT9=
EXTT10=
EXTT11=
EXTT12=
EXTT13=
PLAYORDER=
